<svg width="25" height="25" viewBox="0 0 25 25" fill="none" xmlns="http://www.w3.org/2000/svg">
<g id="Icon">
<path id="Icon_2" fill-rule="evenodd" clip-rule="evenodd" d="M5.86246 5.71866C6.33109 5.25003 7.09089 5.25003 7.55951 5.71866L12.711 10.8701L17.8625 5.71866C18.3311 5.25003 19.0909 5.25003 19.5595 5.71866C20.0281 6.18729 20.0281 6.94709 19.5595 7.41572L14.408 12.5672L19.5595 17.7187C20.0281 18.1873 20.0281 18.9471 19.5595 19.4157C19.0909 19.8843 18.3311 19.8843 17.8625 19.4157L12.711 14.2642L7.55951 19.4157C7.09089 19.8843 6.33109 19.8843 5.86246 19.4157C5.39383 18.9471 5.39383 18.1873 5.86246 17.7187L11.0139 12.5672L5.86246 7.41572C5.39383 6.94709 5.39383 6.18729 5.86246 5.71866Z" fill="#A8A5A5"/>
</g>
</svg>
