<svg width="25" height="25" viewBox="0 0 25 25" fill="none" xmlns="http://www.w3.org/2000/svg">
<g id="Icon">
<path id="Icon_2" fill-rule="evenodd" clip-rule="evenodd" d="M5.36221 5.71866C5.83084 5.25003 6.59064 5.25003 7.05927 5.71866L12.2107 10.8701L17.3622 5.71866C17.8308 5.25003 18.5906 5.25003 19.0593 5.71866C19.5279 6.18729 19.5279 6.94709 19.0593 7.41572L13.9078 12.5672L19.0593 17.7187C19.5279 18.1873 19.5279 18.9471 19.0593 19.4157C18.5906 19.8843 17.8308 19.8843 17.3622 19.4157L12.2107 14.2642L7.05927 19.4157C6.59064 19.8843 5.83084 19.8843 5.36221 19.4157C4.89358 18.9471 4.89358 18.1873 5.36221 17.7187L10.5137 12.5672L5.36221 7.41572C4.89358 6.94709 4.89358 6.18729 5.36221 5.71866Z" fill="#4B4B4B"/>
</g>
</svg>
