<svg width="21" height="21" viewBox="0 0 21 21" fill="none" xmlns="http://www.w3.org/2000/svg">
<g id="Icon">
<path id="Icon_2" fill-rule="evenodd" clip-rule="evenodd" d="M18.2109 10.5674C18.2109 14.9857 14.6292 18.5674 10.2109 18.5674C5.79266 18.5674 2.21094 14.9857 2.21094 10.5674C2.21094 6.1491 5.79266 2.56738 10.2109 2.56738C14.6292 2.56738 18.2109 6.1491 18.2109 10.5674ZM11.2109 14.5674C11.2109 15.1197 10.7632 15.5674 10.2109 15.5674C9.65865 15.5674 9.21094 15.1197 9.21094 14.5674C9.21094 14.0151 9.65865 13.5674 10.2109 13.5674C10.7632 13.5674 11.2109 14.0151 11.2109 14.5674ZM10.2109 5.56738C9.65865 5.56738 9.21094 6.0151 9.21094 6.56738V10.5674C9.21094 11.1197 9.65865 11.5674 10.2109 11.5674C10.7632 11.5674 11.2109 11.1197 11.2109 10.5674V6.56738C11.2109 6.0151 10.7632 5.56738 10.2109 5.56738Z" fill="#DC2626"/>
</g>
</svg>
