<svg width="41" height="41" viewBox="0 0 41 41" fill="none" xmlns="http://www.w3.org/2000/svg">
<g id="Group 4">
<g id="Group 6">
<g id="Group 5">
<path id="Rectangle 7" d="M28.2107 38.5674H21.6489C16.1261 38.5674 11.6489 34.0902 11.6489 28.5674V12.5674C11.6489 7.04454 16.1261 2.56738 21.6489 2.56738H26.5532L38.2107 14.6316V28.5674C38.2107 34.0902 33.7336 38.5674 28.2107 38.5674Z" fill="#EEF1F7" stroke="#CBD0DC" stroke-width="4"/>
<rect id="Rectangle 8" x="0.210938" y="18.2417" width="26.9663" height="16.2791" rx="7" fill="#398CD8"/>
<g id="JPG">
<path id="Vector" d="M22.4683 24.5614C22.395 24.3312 22.2963 24.125 22.1724 23.9429C22.0509 23.7582 21.9055 23.6013 21.736 23.4723C21.5665 23.3408 21.3729 23.2409 21.1554 23.1725C20.9404 23.1042 20.7038 23.0701 20.4458 23.0701C20.0081 23.0701 19.6135 23.1827 19.2619 23.4078C18.9102 23.633 18.6319 23.9631 18.427 24.3982C18.2246 24.8308 18.1235 25.3608 18.1235 25.9882C18.1235 26.6181 18.2259 27.1506 18.4308 27.5857C18.6357 28.0209 18.9165 28.351 19.2732 28.5761C19.6299 28.8013 20.036 28.9139 20.4913 28.9139C20.9138 28.9139 21.2819 28.8278 21.5956 28.6558C21.9118 28.4838 22.1559 28.2409 22.3279 27.9273C22.5025 27.611 22.5898 27.2392 22.5898 26.8116L22.8933 26.8685H20.6697V25.9009H23.7244V26.7851C23.7244 27.4377 23.5852 28.0044 23.307 28.4851C23.0312 28.9632 22.6492 29.3325 22.161 29.5931C21.6753 29.8537 21.1187 29.984 20.4913 29.984C19.788 29.984 19.1708 29.822 18.6395 29.4982C18.1108 29.1744 17.6985 28.7153 17.4025 28.1208C17.1065 27.5238 16.9585 26.8154 16.9585 25.9958C16.9585 25.376 17.0445 24.8194 17.2165 24.3261C17.3886 23.8328 17.6302 23.4141 17.9413 23.0701C18.255 22.7235 18.6231 22.4592 19.0456 22.277C19.4706 22.0923 19.9348 22 20.4382 22C20.8581 22 21.249 22.062 21.6107 22.1859C21.975 22.3099 22.2988 22.4857 22.5822 22.7134C22.868 22.9411 23.1046 23.2118 23.2918 23.5255C23.479 23.8366 23.6055 24.1819 23.6712 24.5614H22.4683Z" fill="white"/>
<path id="Vector_2" d="M10.374 29.8779V22.1064H13.1441C13.7487 22.1064 14.2496 22.2165 14.6468 22.4366C15.044 22.6567 15.3412 22.9577 15.5385 23.3397C15.7359 23.7192 15.8345 24.1467 15.8345 24.6223C15.8345 25.1004 15.7346 25.5305 15.5348 25.9125C15.3374 26.2919 15.0389 26.593 14.6392 26.8156C14.242 27.0357 13.7424 27.1457 13.1403 27.1457H11.2354V26.1515H13.0341C13.4161 26.1515 13.726 26.0858 13.9638 25.9542C14.2016 25.8201 14.3761 25.638 14.4874 25.4078C14.5987 25.1776 14.6544 24.9158 14.6544 24.6223C14.6544 24.3288 14.5987 24.0683 14.4874 23.8406C14.3761 23.6129 14.2003 23.4346 13.96 23.3056C13.7222 23.1765 13.4085 23.112 13.0189 23.112H11.5466V29.8779H10.374Z" fill="white"/>
<path id="Vector_3" d="M7.49867 22.1064H8.66743V27.6163C8.66743 28.1146 8.56876 28.5409 8.37144 28.8951C8.17665 29.2492 7.90217 29.5199 7.548 29.7071C7.19383 29.8918 6.77895 29.9841 6.30336 29.9841C5.86571 29.9841 5.47233 29.9045 5.12322 29.7451C4.77664 29.5857 4.50216 29.3542 4.29978 29.0507C4.09993 28.7446 4 28.3727 4 27.935H5.16496C5.16496 28.1501 5.21429 28.336 5.31295 28.4928C5.41414 28.6497 5.55201 28.7724 5.72657 28.8609C5.90365 28.9469 6.10603 28.9899 6.33371 28.9899C6.58163 28.9899 6.7916 28.9381 6.96363 28.8344C7.13818 28.7281 7.27099 28.5725 7.36206 28.3676C7.45314 28.1627 7.49867 27.9123 7.49867 27.6163V22.1064Z" fill="white"/>
</g>
</g>
</g>
</g>
</svg>
