<svg width="21" height="21" viewBox="0 0 21 21" fill="none" xmlns="http://www.w3.org/2000/svg">
<g id="Loading">
<path id="Vector" d="M10.2111 6.40088C9.75277 6.40088 9.37777 6.02588 9.37777 5.56755V2.23421C9.37777 1.77588 9.75277 1.40088 10.2111 1.40088C10.6694 1.40088 11.0444 1.77588 11.0444 2.23421V5.56755C11.0444 6.02588 10.6694 6.40088 10.2111 6.40088ZM10.2111 19.7342C9.75277 19.7342 9.37777 19.3592 9.37777 18.9009V15.5675C9.37777 15.1092 9.75277 14.7342 10.2111 14.7342C10.6694 14.7342 11.0444 15.1092 11.0444 15.5675V18.9009C11.0444 19.3592 10.6694 19.7342 10.2111 19.7342ZM18.5444 11.4009H15.2111C14.7528 11.4009 14.3778 11.0259 14.3778 10.5675C14.3778 10.1092 14.7528 9.73421 15.2111 9.73421H18.5444C19.0028 9.73421 19.3778 10.1092 19.3778 10.5675C19.3778 11.0259 19.0028 11.4009 18.5444 11.4009ZM5.2111 11.4009H1.87777C1.41943 11.4009 1.04443 11.0259 1.04443 10.5675C1.04443 10.1092 1.41943 9.73421 1.87777 9.73421H5.2111C5.66943 9.73421 6.04443 10.1092 6.04443 10.5675C6.04443 11.0259 5.66943 11.4009 5.2111 11.4009ZM16.1028 17.2925C15.8861 17.2925 15.6778 17.2092 15.5111 17.0509L13.1528 14.6925C13.0756 14.6154 13.0144 14.5238 12.9727 14.423C12.9309 14.3222 12.9094 14.2142 12.9094 14.105C12.9094 13.9959 12.9309 13.8879 12.9727 13.7871C13.0144 13.6863 13.0756 13.5947 13.1528 13.5175C13.2299 13.4404 13.3215 13.3792 13.4223 13.3374C13.5231 13.2957 13.6312 13.2742 13.7403 13.2742C13.8494 13.2742 13.9574 13.2957 14.0582 13.3374C14.159 13.3792 14.2506 13.4404 14.3278 13.5175L16.6861 15.8759C16.8024 15.9923 16.8815 16.1406 16.9133 16.302C16.9451 16.4634 16.9283 16.6306 16.8649 16.7824C16.8015 16.9342 16.6944 17.0638 16.5572 17.1546C16.42 17.2454 16.259 17.2934 16.0944 17.2925H16.1028ZM6.67777 7.86755C6.4611 7.86755 6.25277 7.78421 6.0861 7.62588L3.72777 5.26755C3.65062 5.19039 3.58942 5.0988 3.54766 4.998C3.50591 4.89719 3.48442 4.78915 3.48442 4.68005C3.48442 4.57094 3.50591 4.4629 3.54766 4.36209C3.58942 4.26129 3.65062 4.1697 3.72777 4.09255C3.80492 4.01539 3.89651 3.95419 3.99731 3.91244C4.09812 3.87069 4.20616 3.8492 4.31527 3.8492C4.42438 3.8492 4.53242 3.87069 4.63322 3.91244C4.73402 3.95419 4.82562 4.01539 4.90277 4.09255L7.2611 6.45088C7.37739 6.56726 7.45647 6.71557 7.4883 6.87698C7.52013 7.03839 7.50327 7.20562 7.43987 7.35743C7.37647 7.50924 7.26938 7.63878 7.1322 7.72961C6.99502 7.82044 6.83395 7.86845 6.66943 7.86755H6.67777ZM4.31943 17.2925C4.10277 17.2925 3.89443 17.2092 3.72777 17.0509C3.65051 16.9738 3.58922 16.8822 3.54741 16.7814C3.50559 16.6806 3.48406 16.5725 3.48406 16.4634C3.48406 16.3542 3.50559 16.2462 3.54741 16.1454C3.58922 16.0445 3.65051 15.953 3.72777 15.8759L6.0861 13.5175C6.16325 13.4404 6.25484 13.3792 6.35565 13.3374C6.45645 13.2957 6.56449 13.2742 6.6736 13.2742C6.78271 13.2742 6.89075 13.2957 6.99155 13.3374C7.09236 13.3792 7.18395 13.4404 7.2611 13.5175C7.33825 13.5947 7.39945 13.6863 7.44121 13.7871C7.48296 13.8879 7.50445 13.9959 7.50445 14.105C7.50445 14.2142 7.48296 14.3222 7.44121 14.423C7.39945 14.5238 7.33825 14.6154 7.2611 14.6925L4.90277 17.0509C4.7361 17.2175 4.52777 17.2925 4.3111 17.2925H4.31943ZM13.7444 7.86755C13.5278 7.86755 13.3194 7.78421 13.1528 7.62588C13.0755 7.54878 13.0142 7.45721 12.9724 7.3564C12.9306 7.25559 12.9091 7.14752 12.9091 7.03838C12.9091 6.92924 12.9306 6.82117 12.9724 6.72036C13.0142 6.61955 13.0755 6.52797 13.1528 6.45088L15.5111 4.09255C15.5883 4.01539 15.6798 3.95419 15.7806 3.91244C15.8815 3.87069 15.9895 3.8492 16.0986 3.8492C16.2077 3.8492 16.3158 3.87069 16.4166 3.91244C16.5174 3.95419 16.6089 4.01539 16.6861 4.09255C16.7633 4.1697 16.8245 4.26129 16.8662 4.36209C16.908 4.4629 16.9295 4.57094 16.9295 4.68005C16.9295 4.78915 16.908 4.89719 16.8662 4.998C16.8245 5.0988 16.7633 5.19039 16.6861 5.26755L14.3278 7.62588C14.1611 7.79255 13.9528 7.86755 13.7361 7.86755H13.7444Z" fill="#0080B7"/>
</g>
</svg>
