<svg width="47" height="47" viewBox="0 0 47 47" fill="none" xmlns="http://www.w3.org/2000/svg">
<g id="vuesax/outline/cloud-add">
<g id="vuesax/outline/cloud-add_2">
<g id="cloud-add">
<path id="Vector" d="M14.5098 37.6358H10.8297C5.1947 37.2333 2.66479 32.9017 2.66479 29.0492C2.66479 25.1967 5.19472 20.8459 10.7339 20.4625C11.5197 20.3859 12.2097 20.9992 12.2672 21.8042C12.3247 22.59 11.7306 23.28 10.9256 23.3375C7.20729 23.6059 5.53979 26.4042 5.53979 29.0683C5.53979 31.7325 7.20729 34.5309 10.9256 34.7992H14.5098C15.2956 34.7992 15.9473 35.4509 15.9473 36.2367C15.9473 37.0225 15.2956 37.6358 14.5098 37.6358Z" fill="white"/>
<path id="Vector_2" d="M32.1617 37.6356C32.1233 37.6356 32.1042 37.6356 32.0658 37.6356C31.28 37.6356 30.5517 36.984 30.5517 36.1981C30.5517 35.374 31.165 34.7606 31.97 34.7606C34.3275 34.7606 36.4359 33.9365 38.0842 32.4606C41.0742 29.854 41.2659 26.0973 40.4609 23.4523C39.6559 20.8265 37.4133 17.8173 33.5033 17.3381C32.8708 17.2615 32.3725 16.7823 32.2575 16.1498C31.4908 11.5498 29.0184 8.36814 25.2617 7.21814C21.39 6.01064 16.8666 7.19897 14.0491 10.1506C11.3083 13.0065 10.6758 17.0123 12.2666 21.4206C12.535 22.1681 12.1517 22.9923 11.4042 23.2606C10.6567 23.529 9.83253 23.1456 9.5642 22.3981C7.62836 16.9931 8.51005 11.8181 11.9792 8.17647C15.525 4.45814 21.2175 2.98229 26.105 4.47729C30.59 5.85729 33.7525 9.55646 34.9025 14.6931C38.8125 15.5748 41.9558 18.5456 43.2017 22.6473C44.5625 27.1131 43.3358 31.7131 39.9817 34.6265C37.8542 36.5431 35.075 37.6356 32.1617 37.6356Z" fill="white"/>
<path id="Vector_3" d="M23.211 43.2707C19.3585 43.2707 15.7552 41.2198 13.7811 37.904C13.5702 37.5782 13.3594 37.1948 13.1869 36.7732C12.5352 35.4123 12.1902 33.8598 12.1902 32.2498C12.1902 26.174 17.1352 21.229 23.211 21.229C29.2869 21.229 34.2319 26.174 34.2319 32.2498C34.2319 33.879 33.8869 35.4123 33.1969 36.8307C33.0436 37.1948 32.8327 37.5782 32.6027 37.9423C30.6669 41.2198 27.0635 43.2707 23.211 43.2707ZM23.211 24.104C18.726 24.104 15.0652 27.7648 15.0652 32.2498C15.0652 33.4382 15.3144 34.5498 15.7935 35.5657C15.9469 35.8915 16.081 36.1598 16.2343 36.409C17.691 38.8815 20.3552 40.3957 23.1918 40.3957C26.0285 40.3957 28.6927 38.8815 30.1302 36.4473C30.3027 36.1598 30.4561 35.8915 30.5711 35.6232C31.0886 34.569 31.3377 33.4573 31.3377 32.269C31.3568 27.7648 27.696 24.104 23.211 24.104Z" fill="white"/>
<path id="Vector_4" d="M22.1183 35.5847C21.7542 35.5847 21.3901 35.4505 21.1026 35.163L19.205 33.2655C18.6491 32.7097 18.6491 31.7897 19.205 31.2338C19.7608 30.678 20.6808 30.678 21.2366 31.2338L22.1567 32.1538L25.2233 29.3172C25.8175 28.7805 26.7183 28.8188 27.255 29.3938C27.7917 29.9688 27.7534 30.8888 27.1784 31.4255L23.0959 35.2013C22.8084 35.4505 22.4633 35.5847 22.1183 35.5847Z" fill="white"/>
</g>
</g>
</g>
</svg>
