<svg width="47" height="47" viewBox="0 0 47 47" fill="none" xmlns="http://www.w3.org/2000/svg">
<g id="vuesax/outline/cloud-add">
<g id="vuesax/outline/cloud-add_2">
<g id="cloud-add">
<path id="Vector" d="M15.01 37.6358H11.3299C5.69494 37.2333 3.16504 32.9017 3.16504 29.0492C3.16504 25.1967 5.69496 20.8459 11.2341 20.4625C12.02 20.3859 12.7099 20.9992 12.7674 21.8042C12.8249 22.59 12.2309 23.28 11.4259 23.3375C7.70753 23.6059 6.04004 26.4042 6.04004 29.0683C6.04004 31.7325 7.70753 34.5309 11.4259 34.7992H15.01C15.7959 34.7992 16.4475 35.4509 16.4475 36.2367C16.4475 37.0225 15.7959 37.6358 15.01 37.6358Z" fill="#292D32"/>
<path id="Vector_2" d="M32.6617 37.6356C32.6233 37.6356 32.6042 37.6356 32.5658 37.6356C31.78 37.6356 31.0517 36.984 31.0517 36.1981C31.0517 35.374 31.665 34.7606 32.47 34.7606C34.8275 34.7606 36.9359 33.9365 38.5842 32.4606C41.5742 29.854 41.7659 26.0973 40.9609 23.4523C40.1559 20.8265 37.9133 17.8173 34.0033 17.3381C33.3708 17.2615 32.8725 16.7823 32.7575 16.1498C31.9908 11.5498 29.5184 8.36814 25.7617 7.21814C21.89 6.01064 17.3666 7.19897 14.5491 10.1506C11.8083 13.0065 11.1758 17.0123 12.7666 21.4206C13.035 22.1681 12.6517 22.9923 11.9042 23.2606C11.1567 23.529 10.3325 23.1456 10.0642 22.3981C8.12836 16.9931 9.01005 11.8181 12.4792 8.17647C16.025 4.45814 21.7175 2.98229 26.605 4.47729C31.09 5.85729 34.2525 9.55646 35.4025 14.6931C39.3125 15.5748 42.4558 18.5456 43.7017 22.6473C45.0625 27.1131 43.8358 31.7131 40.4817 34.6265C38.3542 36.5431 35.575 37.6356 32.6617 37.6356Z" fill="#292D32"/>
<path id="Vector_3" d="M23.7108 43.2707C19.8583 43.2707 16.255 41.2198 14.2808 37.904C14.07 37.5782 13.8591 37.1948 13.6866 36.7732C13.035 35.4123 12.6899 33.8598 12.6899 32.2498C12.6899 26.174 17.6349 21.229 23.7108 21.229C29.7866 21.229 34.7316 26.174 34.7316 32.2498C34.7316 33.879 34.3867 35.4123 33.6967 36.8307C33.5433 37.1948 33.3325 37.5782 33.1025 37.9423C31.1667 41.2198 27.5633 43.2707 23.7108 43.2707ZM23.7108 24.104C19.2258 24.104 15.5649 27.7648 15.5649 32.2498C15.5649 33.4382 15.8141 34.5498 16.2933 35.5657C16.4466 35.8915 16.5807 36.1598 16.7341 36.409C18.1907 38.8815 20.8549 40.3957 23.6916 40.3957C26.5283 40.3957 29.1924 38.8815 30.6299 36.4473C30.8024 36.1598 30.9558 35.8915 31.0708 35.6232C31.5883 34.569 31.8374 33.4573 31.8374 32.269C31.8566 27.7648 28.1958 24.104 23.7108 24.104Z" fill="#292D32"/>
<path id="Vector_4" d="M22.6183 35.5847C22.2542 35.5847 21.8901 35.4505 21.6026 35.163L19.705 33.2655C19.1491 32.7097 19.1491 31.7897 19.705 31.2338C20.2608 30.678 21.1808 30.678 21.7366 31.2338L22.6567 32.1538L25.7233 29.3172C26.3175 28.7805 27.2183 28.8188 27.755 29.3938C28.2917 29.9688 28.2534 30.8888 27.6784 31.4255L23.5959 35.2013C23.3084 35.4505 22.9633 35.5847 22.6183 35.5847Z" fill="#292D32"/>
</g>
</g>
</g>
</svg>
