<svg width="41" height="41" viewBox="0 0 41 41" fill="none" xmlns="http://www.w3.org/2000/svg">
<path d="M28.2107 38.5674H21.6489C16.1261 38.5674 11.6489 34.0902 11.6489 28.5674V12.5674C11.6489 7.04454 16.1261 2.56738 21.6489 2.56738H26.5532L38.2107 14.6316V28.5674C38.2107 34.0902 33.7336 38.5674 28.2107 38.5674Z" fill="#EEF1F7" stroke="#CBD0DC" stroke-width="4"/>
<rect x="0.210938" y="18.2417" width="26.9663" height="16.2791" rx="7" fill="#D82042"/>
<path d="M4.68066 30.3348V22.5547H7.36038C7.94526 22.5547 8.42981 22.6649 8.81403 22.8852C9.19824 23.1055 9.48579 23.4069 9.67667 23.7893C9.86756 24.1692 9.963 24.5972 9.963 25.0734C9.963 25.552 9.86633 25.9826 9.673 26.365C9.48212 26.7449 9.19335 27.0462 8.80669 27.2691C8.42247 27.4894 7.93914 27.5996 7.3567 27.5996H5.51394V26.6043H7.25392C7.62345 26.6043 7.92324 26.5385 8.15328 26.4068C8.38332 26.2725 8.55217 26.0902 8.65985 25.8597C8.76753 25.6293 8.82137 25.3671 8.82137 25.0734C8.82137 24.7796 8.76753 24.5187 8.65985 24.2908C8.55217 24.0628 8.38209 23.8843 8.14961 23.7551C7.91957 23.626 7.61611 23.5614 7.23924 23.5614H5.81495V30.3348H4.68066Z" fill="white"/>
<path d="M13.7265 30.3348H11.2928V22.5547H13.8036C14.5402 22.5547 15.1728 22.7104 15.7014 23.022C16.23 23.3309 16.6351 23.7754 16.9165 24.3554C17.2004 24.9328 17.3423 25.6255 17.3423 26.4334C17.3423 27.2438 17.1991 27.9402 16.9128 28.5227C16.6289 29.1052 16.2178 29.5535 15.6794 29.8676C15.141 30.1791 14.4901 30.3348 13.7265 30.3348ZM12.427 29.3091H13.6641C14.2368 29.3091 14.7128 29.1977 15.0921 28.9748C15.4714 28.7494 15.7553 28.424 15.9437 27.9985C16.1321 27.5705 16.2264 27.0488 16.2264 26.4334C16.2264 25.823 16.1321 25.3051 15.9437 24.8796C15.7577 24.4541 15.48 24.1312 15.1104 23.9109C14.7409 23.6906 14.282 23.5804 13.7339 23.5804H12.427V29.3091Z" fill="white"/>
<path d="M18.7528 30.3348V22.5547H23.4148V23.5652H19.8871V25.9357H23.0807V26.9424H19.8871V30.3348H18.7528Z" fill="white"/>
</svg>
