<svg width="41" height="41" viewBox="0 0 41 41" fill="none" xmlns="http://www.w3.org/2000/svg">
<g id="Group 4">
<g id="Group 6">
<g id="Group 5">
<path id="Rectangle 7" d="M28.2107 38.5674H21.6489C16.1261 38.5674 11.6489 34.0902 11.6489 28.5674V12.5674C11.6489 7.04454 16.1261 2.56738 21.6489 2.56738H26.5532L38.2107 14.6316V28.5674C38.2107 34.0902 33.7336 38.5674 28.2107 38.5674Z" fill="#EEF1F7" stroke="#CBD0DC" stroke-width="4"/>
<rect id="Rectangle 8" x="0.210938" y="18.2417" width="26.9663" height="16.2791" rx="7" fill="#DB8547"/>
<g id="PNG">
<path id="Vector" d="M22.4102 25.3487C22.3429 25.1376 22.2525 24.9485 22.1388 24.7815C22.0275 24.6122 21.8941 24.4684 21.7387 24.3501C21.5832 24.2294 21.4058 24.1378 21.2063 24.0752C21.0091 24.0125 20.7922 23.9812 20.5556 23.9812C20.1543 23.9812 19.7924 24.0845 19.47 24.2909C19.1476 24.4974 18.8924 24.8001 18.7045 25.1991C18.5189 25.5957 18.4261 26.0817 18.4261 26.657C18.4261 27.2346 18.5201 27.7229 18.708 28.1219C18.8959 28.5209 19.1534 28.8236 19.4804 29.0301C19.8075 29.2365 20.1798 29.3397 20.5974 29.3397C20.9848 29.3397 21.3223 29.2609 21.6099 29.1031C21.8999 28.9454 22.1237 28.7227 22.2815 28.4351C22.4415 28.1451 22.5216 27.8041 22.5216 27.4121L22.7999 27.4643H20.7609V26.577H23.5619V27.3877C23.5619 27.9862 23.4344 28.5058 23.1792 28.9465C22.9263 29.385 22.5761 29.7236 22.1284 29.9626C21.683 30.2015 21.1727 30.321 20.5974 30.321C19.9525 30.321 19.3865 30.1725 18.8994 29.8756C18.4145 29.5787 18.0364 29.1576 17.765 28.6125C17.4936 28.0651 17.3579 27.4155 17.3579 26.664C17.3579 26.0956 17.4368 25.5853 17.5945 25.133C17.7523 24.6806 17.9738 24.2967 18.2591 23.9812C18.5468 23.6634 18.8843 23.421 19.2717 23.254C19.6614 23.0847 20.087 23 20.5487 23C20.9337 23 21.2921 23.0568 21.6238 23.1705C21.9579 23.2842 22.2548 23.4454 22.5146 23.6542C22.7767 23.8629 22.9936 24.1111 23.1653 24.3988C23.3369 24.6841 23.4529 25.0007 23.5132 25.3487H22.4102Z" fill="white"/>
<path id="Vector_2" d="M16.0193 23.0977V30.2238H15.0311L11.4089 24.9975H11.3428V30.2238H10.2676V23.0977H11.2627L14.8884 28.3309H14.9545V23.0977H16.0193Z" fill="white"/>
<path id="Vector_3" d="M4 30.2238V23.0977H6.54007C7.09448 23.0977 7.55378 23.1986 7.91797 23.4004C8.28216 23.6022 8.55473 23.8782 8.73566 24.2285C8.9166 24.5765 9.00707 24.9685 9.00707 25.4046C9.00707 25.843 8.91544 26.2374 8.73219 26.5876C8.55125 26.9356 8.27752 27.2116 7.91101 27.4158C7.54682 27.6176 7.08868 27.7185 6.53659 27.7185H4.78986V26.8069H6.43916C6.78944 26.8069 7.0736 26.7465 7.29165 26.6259C7.5097 26.503 7.66976 26.336 7.77183 26.1249C7.8739 25.9138 7.92493 25.6737 7.92493 25.4046C7.92493 25.1355 7.8739 24.8966 7.77183 24.6878C7.66976 24.479 7.50854 24.3155 7.28817 24.1972C7.07012 24.0789 6.78248 24.0197 6.42524 24.0197H5.07518V30.2238H4Z" fill="white"/>
</g>
</g>
</g>
</g>
</svg>
