<svg width="21" height="21" viewBox="0 0 21 21" fill="none" xmlns="http://www.w3.org/2000/svg">
<g id="Icon">
<path id="Icon_2" fill-rule="evenodd" clip-rule="evenodd" d="M10.2109 18.9839C14.6292 18.9839 18.2109 15.4022 18.2109 10.9839C18.2109 6.56561 14.6292 2.98389 10.2109 2.98389C5.79266 2.98389 2.21094 6.56561 2.21094 10.9839C2.21094 15.4022 5.79266 18.9839 10.2109 18.9839ZM13.918 9.69099C14.3086 9.30047 14.3086 8.6673 13.918 8.27678C13.5275 7.88626 12.8944 7.88626 12.5038 8.27678L9.21094 11.5697L7.91804 10.2768C7.52752 9.88626 6.89435 9.88626 6.50383 10.2768C6.11331 10.6673 6.11331 11.3005 6.50383 11.691L8.50383 13.691C8.89435 14.0815 9.52752 14.0815 9.91804 13.691L13.918 9.69099Z" fill="#5D9C47"/>
</g>
</svg>
